<svg width="640" height="320" viewBox="0 0 640 320" fill="none" xmlns="http://www.w3.org/2000/svg">
<g clip-path="url(#clip0_169_2217)">
<path d="M278.5 12C266.074 12 256 22.0737 256 34.5C256 45.0516 263.265 53.9058 273.065 56.3376V41.376H268.425V34.5H273.065V31.5372C273.065 23.8791 276.531 20.3295 284.049 20.3295C285.475 20.3295 287.935 20.6094 288.941 20.8884V27.1209C288.41 27.0651 287.487 27.0372 286.342 27.0372C282.653 27.0372 281.227 28.4349 281.227 32.0682V34.5H288.576L287.314 41.376H281.227V56.8353C292.368 55.4898 301.001 46.0038 301.001 34.5C301 22.0737 290.926 12 278.5 12Z" fill="white"/>
</g>
<path d="M290.362 89.5698H296.687L282.868 105.364L299.125 126.856H286.396L276.426 113.821L265.019 126.856H258.69L273.47 109.963L257.875 89.5698H270.927L279.939 101.484L290.362 89.5698ZM288.142 123.07H291.647L269.023 93.1569H265.261L288.142 123.07Z" fill="white"/>
<path d="M298.552 173.5C298.552 173.5 298.112 170.398 296.759 169.035C295.045 167.242 293.129 167.233 292.25 167.128C285.957 166.671 276.509 166.671 276.509 166.671H276.491C276.491 166.671 267.043 166.671 260.75 167.128C259.871 167.233 257.955 167.242 256.241 169.035C254.888 170.398 254.457 173.5 254.457 173.5C254.457 173.5 254 177.148 254 180.786V184.196C254 187.835 254.448 191.483 254.448 191.483C254.448 191.483 254.888 194.585 256.232 195.947C257.946 197.74 260.196 197.679 261.198 197.872C264.802 198.215 276.5 198.32 276.5 198.32C276.5 198.32 285.957 198.303 292.25 197.855C293.129 197.749 295.045 197.74 296.759 195.947C298.112 194.585 298.552 191.483 298.552 191.483C298.552 191.483 299 187.844 299 184.196V180.786C299 177.148 298.552 173.5 298.552 173.5ZM271.851 188.336V175.689L284.006 182.034L271.851 188.336Z" fill="white"/>
<g clip-path="url(#clip1_169_2217)">
<path d="M297.669 234H259.322C257.485 234 256 235.45 256 237.243V275.748C256 277.541 257.485 279 259.322 279H297.669C299.506 279 301 277.541 301 275.757V237.243C301 235.45 299.506 234 297.669 234ZM269.351 272.347H262.671V250.866H269.351V272.347ZM266.011 247.939C263.866 247.939 262.135 246.208 262.135 244.072C262.135 241.937 263.866 240.205 266.011 240.205C268.146 240.205 269.878 241.937 269.878 244.072C269.878 246.199 268.146 247.939 266.011 247.939ZM294.347 272.347H287.676V261.905C287.676 259.418 287.632 256.21 284.204 256.21C280.732 256.21 280.205 258.926 280.205 261.729V272.347H273.543V250.866H279.941V253.802H280.029C280.917 252.114 283.097 250.33 286.34 250.33C293.099 250.33 294.347 254.777 294.347 260.561V272.347V272.347Z" fill="white"/>
</g>
<defs>
<clipPath id="clip0_169_2217">
<rect width="45" height="45" fill="white" transform="translate(256 12)"/>
</clipPath>
<clipPath id="clip1_169_2217">
<rect width="45" height="45" fill="white" transform="translate(256 234)"/>
</clipPath>
</defs>
</svg>
